# xmcd
#
# Track frame offsets:
# 150
# 13647
# 26803
# 39708
# 52968
# 66153
# 77929
# 90887
# 103670
# 117429
# 129538
# 141868
# 155481
# 169270
# 181779
# 195050
# 207869
# 220575
# 234485
# 246743
# 260115
# 271943
# 285523
# 297281
# 311303
#
# Disc length: 4296 seconds
#
# Revision: 0
# Processed by: cddbd v1.5.1PL0 Copyright (c) Steve Scherf et al.
# Submitted via: Axialis_AX_CDPlayer 2.6
#
DISCID=6610c619
DTITLE=Moon Mullican - I'll Sail My Ship Alone CD 2
DYEAR=1900
DGENRE=
TTITLE0=New Pretty Blonde (New Jole Blon)
TTITLE1=New Milk Cow Blues
TTITLE2=Shoot The Moon
TTITLE3=The Lonesome Hearted Blues
TTITLE4=What Have I Done That Made You Go Away
TTITLE5=Triflin' Woman Blues
TTITLE6=Jole Blon Is Gone Amen
TTITLE7=Foggy River
TTITLE8=There's A Chill On The Hill Tonight
TTITLE9=Oh She's Gone But Not Forgotten
TTITLE10=I Left My Heart In Texas
TTITLE11=Wait A Minute
TTITLE12=I'll Sail My Ship Alone
TTITLE13=I Was Sorta Wonderin'
TTITLE14=The Lamp Of Life (Is Burning Low)
TTITLE15=Mona Lisa
TTITLE16=Southern Hospitality
TTITLE17=Well Oh Well
TTITLE18=Moon's Tune
TTITLE19=Without A Port Of Love
TTITLE20=Heartless Lover
TTITLE21=Nine Tenths Of The Tennessee River
TTITLE22=You Don't Have To Be A Baby To Cry
TTITLE23=Cherokee Boogie (Eh-Oh-Aleena)
TTITLE24=Blue Tears
EXTD=
EXTT0=
EXTT1=
EXTT2=
EXTT3=
EXTT4=
EXTT5=
EXTT6=
EXTT7=
EXTT8=
EXTT9=
EXTT10=
EXTT11=
EXTT12=
EXTT13=
EXTT14=
EXTT15=
EXTT16=
EXTT17=
EXTT18=
EXTT19=
EXTT20=
EXTT21=
EXTT22=
EXTT23=
EXTT24=
PLAYORDER=
